<mxfile host="app.diagrams.net" modified="2024-01-06T05:32:09.726Z" agent="Mozilla/5.0 (Windows NT 10.0; WOW64) AppleWebKit/537.36 (KHTML, like Gecko) Chrome/102.0.0.0 Safari/537.36" version="22.1.13" etag="l5GrHyp3le6BIeyUQo3Y" type="github">
  <diagram name="Page-1" id="YEXF6XqUDTDrUI7eMGKA">
    <mxGraphModel>
      <root>
        <mxCell id="0" />
        <mxCell id="1" parent="0" />
      </root>
    </mxGraphModel>
  </diagram>
</mxfile>
